<svg width="24" height="24" viewBox="0 0 24 24" fill="none" xmlns="http://www.w3.org/2000/svg">
<path fill-rule="evenodd" clip-rule="evenodd" d="M16.4975 5.0299C16.4973 5.078 16.4959 5.12583 16.4934 5.17336C17.662 5.58334 18.5 6.6963 18.5 8.00497V9.00494H19.5V13.0049H18.5V16.005C18.5 17.3129 17.663 18.4254 16.4953 18.8359C16.4984 18.8919 16.5 18.9482 16.5 19.005C16.5 20.6618 15.1569 22.005 13.5 22.005H9.5C7.84315 22.005 6.5 20.6618 6.5 19.005C6.5 18.9482 6.50158 18.8919 6.50468 18.8359C5.33705 18.4254 4.5 17.3129 4.5 16.005V8.00497C4.5 6.69768 5.33618 5.58569 6.50286 5.17467C6.49907 5.11034 6.4973 5.04547 6.49763 4.98012C6.50587 3.32329 7.85569 1.98685 9.51252 1.99509L13.5125 2.015C15.1693 2.02325 16.5058 3.37307 16.4975 5.0299ZM8.49764 5.00497H14.4975C14.4922 4.45956 14.0498 4.0177 13.5025 4.01498L9.50257 3.99507C8.95029 3.99232 8.50035 4.4378 8.4976 4.99008L8.49764 5.00497ZM15.7049 7.02598L11.4846 7.00497H7.5C6.94772 7.00497 6.5 7.45269 6.5 8.00497V16.005C6.5 16.5568 6.94696 17.0042 7.4986 17.005H15.5014C16.053 17.0042 16.5 16.5568 16.5 16.005V8.00497C16.5 7.52291 16.1589 7.12051 15.7049 7.02598ZM8.5 19.005C8.5 19.5573 8.94772 20.005 9.5 20.005H13.5C14.0523 20.005 14.5 19.5573 14.5 19.005H8.5Z" fill="black"/>
</svg>
