<svg width="24" height="24" viewBox="0 0 24 24" fill="none" xmlns="http://www.w3.org/2000/svg">
<path fill-rule="evenodd" clip-rule="evenodd" d="M18.73 7.75732L22.9798 11.9928L18.7443 16.2426L17.3277 14.8308L19.142 13.0103L6.85361 13.0524C6.44675 14.219 5.33951 15.0583 4.03365 15.0642C2.37681 15.0716 1.02764 13.7345 1.0202 12.0777C1.01276 10.4208 2.34986 9.07167 4.0067 9.06423C5.31325 9.05836 6.42847 9.88861 6.84528 11.0524L19.1607 11.0102L17.3182 9.17392L18.73 7.75732ZM5.02016 12.0597C5.01768 11.5074 4.56796 11.0617 4.01568 11.0642C3.4634 11.0667 3.0177 11.5164 3.02018 12.0687C3.02266 12.621 3.47238 13.0667 4.02466 13.0642C4.57694 13.0617 5.02264 12.612 5.02016 12.0597Z" fill="black"/>
</svg>
