<svg width="24" height="24" viewBox="0 0 24 24" fill="none" xmlns="http://www.w3.org/2000/svg">
<path fill-rule="evenodd" clip-rule="evenodd" d="M5.27001 7.75732L1.02021 11.9928L5.25577 16.2426L6.67237 14.8308L4.85801 13.0103L17.1464 13.0524C17.5532 14.219 18.6605 15.0583 19.9663 15.0642C21.6232 15.0716 22.9723 13.7345 22.9798 12.0777C22.9872 10.4208 21.6501 9.07167 19.9933 9.06423C18.6867 9.05836 17.5715 9.88861 17.1547 11.0524L4.83935 11.0102L6.68183 9.17392L5.27001 7.75732ZM18.9798 12.0597C18.9823 11.5074 19.432 11.0617 19.9843 11.0642C20.5366 11.0667 20.9823 11.5164 20.9798 12.0687C20.9773 12.621 20.5276 13.0667 19.9753 13.0642C19.423 13.0617 18.9773 12.612 18.9798 12.0597Z" fill="black"/>
</svg>
