<svg width="24" height="24" viewBox="0 0 24 24" fill="none" xmlns="http://www.w3.org/2000/svg">
<path d="M12.9841 4.99268C12.9841 4.44039 13.4318 3.99268 13.9841 3.99268C14.3415 3.99268 14.6551 4.18016 14.8319 4.46214L17.5195 7.14976C17.9101 7.54029 17.9101 8.17345 17.5195 8.56398C17.129 8.9545 16.4958 8.9545 16.1053 8.56398L14.9841 7.44275V14.9927C14.9841 15.545 14.5364 15.9927 13.9841 15.9927C13.4318 15.9927 12.9841 15.545 12.9841 14.9927V5.04213C12.984 5.033 12.984 5.02388 12.9841 5.01476V4.99268Z" fill="black"/>
<path d="M11.0159 19.0076C11.0159 19.5599 10.5682 20.0076 10.0159 20.0076C9.6585 20.0076 9.3449 19.8201 9.16807 19.5381L6.48045 16.8505C6.08993 16.46 6.08993 15.8268 6.48045 15.4363C6.87098 15.0457 7.50414 15.0457 7.89467 15.4363L9.01589 16.5575V9.00757C9.01589 8.45528 9.46361 8.00757 10.0159 8.00757C10.5682 8.00757 11.0159 8.45528 11.0159 9.00757V18.9581C11.016 18.9672 11.016 18.9764 11.0159 18.9855V19.0076Z" fill="black"/>
</svg>
