<svg width="24" height="24" viewBox="0 0 24 24" fill="none" xmlns="http://www.w3.org/2000/svg">
<path fill-rule="evenodd" clip-rule="evenodd" d="M7.75749 5.23075L12.032 1.02026L16.2425 5.29489L14.8177 6.69839L13.014 4.86733L12.9427 17.1555C14.1054 17.5731 14.9345 18.6881 14.9283 19.9939C14.9204 21.6508 13.5709 22.9875 11.9141 22.9797C10.2572 22.9718 8.92048 21.6223 8.92834 19.9655C8.93454 18.6589 9.77506 17.5514 10.9427 17.1454L11.0142 4.83014L9.16099 6.6556L7.75749 5.23075ZM11.9331 18.9797C11.3808 18.9771 10.9309 19.4227 10.9283 19.9749C10.9257 20.5272 11.3713 20.9771 11.9236 20.9797C12.4758 20.9823 12.9257 20.5367 12.9283 19.9844C12.9309 19.4322 12.4853 18.9823 11.9331 18.9797Z" fill="black"/>
</svg>
