<svg width="24" height="24" viewBox="0 0 24 24" fill="none" xmlns="http://www.w3.org/2000/svg">
<path fill-rule="evenodd" clip-rule="evenodd" d="M10.9991 6.84989C9.83339 6.43831 8.99813 5.32683 8.99813 4.02026C8.99813 2.36341 10.3413 1.02026 11.9981 1.02026C13.655 1.02026 14.9981 2.36341 14.9981 4.02026C14.9981 5.32613 14.1638 6.43713 12.9991 6.84923L13.0121 19.1376L14.8244 17.3151L16.2426 18.7254L12.0119 22.98L7.75739 18.7492L9.16763 17.3311L11.0122 19.1653L10.9991 6.84989ZM11.9981 5.02026C11.4458 5.02026 10.9981 4.57255 10.9981 4.02026C10.9981 3.46798 11.4458 3.02026 11.9981 3.02026C12.5504 3.02026 12.9981 3.46798 12.9981 4.02026C12.9981 4.57255 12.5504 5.02026 11.9981 5.02026Z" fill="black"/>
</svg>
