<svg width="24" height="24" viewBox="0 0 24 24" fill="none" xmlns="http://www.w3.org/2000/svg">
<path d="M4.99255 11.0158C4.44027 11.0158 3.99255 10.5681 3.99255 10.0158C3.99255 9.65844 4.18004 9.34484 4.46202 9.16801L7.14964 6.48039C7.54016 6.08987 8.17333 6.08987 8.56385 6.48039C8.95438 6.87092 8.95438 7.50408 8.56385 7.89461L7.44263 9.01583L14.9926 9.01583C15.5448 9.01583 15.9926 9.46355 15.9926 10.0158C15.9926 10.5681 15.5448 11.0158 14.9926 11.0158L5.042 11.0158C5.03288 11.016 5.02376 11.016 5.01464 11.0158H4.99255Z" fill="black"/>
<path d="M19.0074 12.984C19.5597 12.984 20.0074 13.4318 20.0074 13.984C20.0074 14.3414 19.82 14.655 19.538 14.8319L16.8504 17.5195C16.4598 17.91 15.8267 17.91 15.4361 17.5195C15.0456 17.129 15.0456 16.4958 15.4361 16.1053L16.5574 14.984H9.00745C8.45516 14.984 8.00745 14.5363 8.00745 13.984C8.00745 13.4318 8.45516 12.984 9.00745 12.984L18.958 12.984C18.9671 12.9839 18.9762 12.9839 18.9854 12.984H19.0074Z" fill="black"/>
</svg>
