<svg width="24" height="24" viewBox="0 0 24 24" fill="none" xmlns="http://www.w3.org/2000/svg">
<path d="M12.9841 15C12.9841 15.5523 13.4318 16 13.9841 16C14.3415 16 14.6551 15.8125 14.8319 15.5305L17.5195 12.8429C17.9101 12.4524 17.9101 11.8192 17.5195 11.4287C17.129 11.0382 16.4959 11.0382 16.1053 11.4287L14.9841 12.5499L14.9841 5C14.9841 4.44771 14.5364 4 13.9841 4C13.4318 4 12.9841 4.44772 12.9841 5L12.9841 14.9506C12.984 14.9597 12.984 14.9688 12.9841 14.9779V15Z" fill="black"/>
<path d="M11.0159 9C11.0159 8.44771 10.5682 8 10.0159 8C9.6585 8 9.3449 8.18748 9.16807 8.46947L6.48045 11.1571C6.08993 11.5476 6.08993 12.1808 6.48045 12.5713C6.87098 12.9618 7.50414 12.9618 7.89467 12.5713L9.01589 11.4501L9.01589 19C9.01589 19.5523 9.46361 20 10.0159 20C10.5682 20 11.0159 19.5523 11.0159 19L11.0159 9.04945C11.016 9.04033 11.016 9.03121 11.0159 9.02208V9Z" fill="black"/>
</svg>
