<svg width="24" height="24" viewBox="0 0 24 24" fill="none" xmlns="http://www.w3.org/2000/svg">
<path d="M4.99255 12.984C4.44027 12.984 3.99255 13.4318 3.99255 13.984C3.99255 14.3414 4.18004 14.655 4.46202 14.8319L7.14964 17.5195C7.54016 17.91 8.17333 17.91 8.56385 17.5195C8.95438 17.129 8.95438 16.4958 8.56385 16.1053L7.44263 14.984H14.9926C15.5448 14.984 15.9926 14.5363 15.9926 13.984C15.9926 13.4318 15.5448 12.984 14.9926 12.984L5.042 12.984C5.03288 12.9839 5.02376 12.9839 5.01464 12.984H4.99255Z" fill="black"/>
<path d="M19.0074 11.0158C19.5597 11.0158 20.0074 10.5681 20.0074 10.0158C20.0074 9.65844 19.82 9.34484 19.538 9.16801L16.8504 6.48039C16.4598 6.08987 15.8267 6.08987 15.4361 6.48039C15.0456 6.87092 15.0456 7.50408 15.4361 7.89461L16.5574 9.01583L9.00745 9.01583C8.45516 9.01583 8.00745 9.46355 8.00745 10.0158C8.00745 10.5681 8.45516 11.0158 9.00745 11.0158L18.958 11.0158C18.9671 11.016 18.9762 11.016 18.9854 11.0158H19.0074Z" fill="black"/>
</svg>
