<svg width="24" height="24" viewBox="0 0 24 24" fill="none" xmlns="http://www.w3.org/2000/svg">
<path fill-rule="evenodd" clip-rule="evenodd" d="M17.9513 15.5709C17.7695 17.2186 16.9205 18.6653 15.6804 19.6349C15.332 20.4691 14.7091 21.1601 13.9247 21.595C13.7024 22.4573 12.9195 23.0944 11.9879 23.0944C11.0562 23.0944 10.2733 22.4573 10.051 21.595C9.26666 21.1601 8.64386 20.4693 8.29541 19.6352C7.05949 18.669 6.21197 17.2289 6.02615 15.5882C4.93521 16.416 3.37949 16.4118 2.28612 15.4943C1.0169 14.4293 0.851348 12.5371 1.91635 11.2678L6.0096 6.38969C6.27119 3.31747 8.84779 0.905518 11.9877 0.905518C15.1165 0.905518 17.686 3.3004 17.963 6.35705L22.0836 11.2678C23.1486 12.5371 22.9831 14.4293 21.7139 15.4943C20.6129 16.4181 19.0432 16.416 17.9513 15.5709ZM15.6254 12.9055L13.9472 10.9055H10.0528L8.37461 12.9055H15.6254ZM17.9877 12.6094L19.0195 13.839C19.3745 14.2621 20.0052 14.3172 20.4283 13.9622C20.8514 13.6072 20.9065 12.9765 20.5515 12.5534L17.9877 9.49797V12.6094ZM15.9877 8.90552V6.90552C15.9877 4.69638 14.1969 2.90552 11.9877 2.90552C9.77859 2.90552 7.98773 4.69638 7.98773 6.90552V8.90552H15.9877ZM4.98053 13.839L5.98773 12.6386V9.5272L3.44844 12.5534C3.09344 12.9765 3.14862 13.6072 3.5717 13.9622C3.99477 14.3172 4.62553 14.2621 4.98053 13.839ZM11.9877 18.9055C9.77859 18.9055 7.98773 17.1147 7.98773 14.9055H15.9877C15.9877 17.1147 14.1969 18.9055 11.9877 18.9055Z" fill="black"/>
</svg>
