<svg width="24" height="24" viewBox="0 0 24 24" fill="none" xmlns="http://www.w3.org/2000/svg">
<path fill-rule="evenodd" clip-rule="evenodd" d="M6.07175 3.17291C4.3259 3.5202 2.72226 4.37738 1.46359 5.63605L3.59329 7.76575C4.43076 6.92835 5.49777 6.35803 6.65933 6.12695C7.53561 5.95264 8.436 5.9773 9.2952 6.19452C9.07907 6.45056 8.87668 6.71936 8.68924 6.99988C7.70029 8.47992 7.17245 10.22 7.17245 12C7.17245 13.78 7.70029 15.5201 8.68924 17.0001C8.87668 17.2806 9.07913 17.5494 9.29526 17.8055C8.43607 18.0227 7.53561 18.0474 6.65933 17.873C5.49777 17.642 4.43076 17.0717 3.59329 16.2343L1.46359 18.364C2.72226 19.6226 4.3259 20.4798 6.07175 20.8271C7.81754 21.1743 9.62717 20.9961 11.2717 20.3149C11.5201 20.212 11.7632 20.0983 12 19.9744C12.2369 20.0983 12.4799 20.212 12.7283 20.3149C14.3728 20.9961 16.1825 21.1743 17.9283 20.8271C19.6741 20.4798 21.2777 19.6226 22.5364 18.364L20.4067 16.2343C19.5692 17.0717 18.5022 17.642 17.3407 17.873C16.4644 18.0474 15.5639 18.0227 14.7047 17.8055C14.9209 17.5494 15.1233 17.2806 15.3108 17.0001C16.2997 15.5201 16.8275 13.78 16.8275 12C16.8275 10.22 16.2997 8.47992 15.3108 6.99988C15.1233 6.71936 14.9209 6.45056 14.7048 6.19452C15.564 5.9773 16.4644 5.95264 17.3407 6.12695C18.5022 6.35803 19.5692 6.92835 20.4067 7.76575L22.5364 5.63605C21.2777 4.37738 19.6741 3.5202 17.9283 3.17291C16.1825 2.82568 14.3728 3.00391 12.7283 3.68506C12.4799 3.78796 12.2369 3.90167 12 4.02564C11.7632 3.90167 11.5201 3.78796 11.2717 3.68506C9.62717 3.00391 7.81754 2.82568 6.07175 3.17291ZM12 7.7049C11.6994 7.99695 11.4287 8.32117 11.1935 8.67316C10.5356 9.6579 10.1844 10.8157 10.1844 12C10.1844 13.1843 10.5356 14.3421 11.1935 15.3268C11.4287 15.6788 11.6994 16.0031 12 16.2951C12.3007 16.0031 12.5713 15.6788 12.8065 15.3268C13.4644 14.3421 13.8156 13.1843 13.8156 12C13.8156 10.8157 13.4644 9.6579 12.8065 8.67316C12.5713 8.32117 12.3007 7.99695 12 7.7049Z" fill="black"/>
</svg>
