<svg width="24" height="24" viewBox="0 0 24 24" fill="none" xmlns="http://www.w3.org/2000/svg">
<path fill-rule="evenodd" clip-rule="evenodd" d="M8.20352 2.00378C9.4641 2.00378 10.5068 3.10742 10.6787 4.54241L19.1622 13.0259L11.384 20.8041C10.2124 21.9757 8.31294 21.9757 7.14137 20.8041L2.89873 16.5615C1.72716 15.3899 1.72716 13.4904 2.89873 12.3188L5.70352 9.51404V4.96099C5.70352 3.32777 6.8228 2.00378 8.20352 2.00378ZM8.70352 4.96099V6.51404L7.70352 7.51404V4.96099C7.70352 4.63435 7.92737 4.36955 8.20352 4.36955C8.47966 4.36955 8.70352 4.63435 8.70352 4.96099ZM8.70352 10.8754V9.34247L4.31294 13.733C3.92242 14.1236 3.92242 14.7567 4.31294 15.1473L8.55558 19.3899C8.94611 19.7804 9.57927 19.7804 9.9698 19.3899L16.3338 13.0259L10.7035 7.39569V10.8754C10.7035 10.9184 10.7027 10.9612 10.7012 11.0038H8.69171C8.69944 10.9625 8.70352 10.9195 8.70352 10.8754Z" fill="black"/>
<path d="M16.8587 16.8749C15.6871 18.0465 15.6871 19.946 16.8587 21.1175C18.0302 22.2891 19.9297 22.2891 21.1013 21.1175C22.2729 19.946 22.2729 18.0465 21.1013 16.8749L18.98 14.7536L16.8587 16.8749Z" fill="black"/>
</svg>
