<svg width="24" height="24" viewBox="0 0 24 24" fill="none" xmlns="http://www.w3.org/2000/svg">
<path d="M20.3848 2.87871C19.2132 1.70714 17.3137 1.70714 16.1421 2.87871L14.0203 5.00055L13.3131 4.29335C12.9226 3.90283 12.2894 3.90283 11.8989 4.29335C11.5083 4.68388 11.5083 5.31704 11.8989 5.70757L17.5557 11.3644C17.9462 11.7549 18.5794 11.7549 18.9699 11.3644C19.3605 10.9739 19.3605 10.3407 18.9699 9.95021L18.2629 9.24319L20.3848 7.12135C21.5563 5.94978 21.5563 4.05028 20.3848 2.87871Z" fill="black"/>
<path fill-rule="evenodd" clip-rule="evenodd" d="M11.9297 7.09119L4.15153 14.8694C3.22789 15.793 3.03242 17.1691 3.56513 18.2842L1.99997 19.8494L3.41418 21.2636L4.97934 19.6984C6.09447 20.2311 7.47053 20.0356 8.39417 19.112L16.1723 11.3338L11.9297 7.09119ZM13.3439 11.3338L11.9297 9.91962L5.56574 16.2836C5.17522 16.6741 5.17522 17.3073 5.56574 17.6978C5.95626 18.0883 6.58943 18.0883 6.97995 17.6978L13.3439 11.3338Z" fill="black"/>
</svg>
