<svg width="24" height="24" viewBox="0 0 24 24" fill="none" xmlns="http://www.w3.org/2000/svg">
<path fill-rule="evenodd" clip-rule="evenodd" d="M7.75723 6.34323L11.9999 2.10059L16.2425 6.34323L11.9999 10.5859L7.75723 6.34323ZM10.5857 6.34323L11.9999 4.92901L13.4141 6.34323L11.9999 7.75744L10.5857 6.34323Z" fill="black"/>
<path fill-rule="evenodd" clip-rule="evenodd" d="M2.10049 12L6.34313 7.75739L10.5858 12L6.34313 16.2427L2.10049 12ZM4.92892 12L6.34313 10.5858L7.75735 12L6.34313 13.4142L4.92892 12Z" fill="black"/>
<path fill-rule="evenodd" clip-rule="evenodd" d="M13.4142 12L17.6569 16.2427L21.8995 12L17.6569 7.75739L13.4142 12ZM17.6569 10.5858L16.2426 12L17.6569 13.4142L19.0711 12L17.6569 10.5858Z" fill="black"/>
<path fill-rule="evenodd" clip-rule="evenodd" d="M7.75723 17.657L11.9999 13.4144L16.2425 17.657L11.9999 21.8996L7.75723 17.657ZM10.5857 17.657L11.9999 16.2428L13.4141 17.657L11.9999 19.0712L10.5857 17.657Z" fill="black"/>
</svg>
