<svg width="24" height="24" viewBox="0 0 24 24" fill="none" xmlns="http://www.w3.org/2000/svg">
<path fill-rule="evenodd" clip-rule="evenodd" d="M1.00003 11.9554V12.0446C1.01069 14.7301 1.98366 17.1885 3.59199 19.0931C4.05718 19.6439 4.57553 20.1485 5.13911 20.5987C5.70634 21.0519 6.3194 21.4501 6.97022 21.7853C7.90274 22.2656 8.91278 22.6165 9.97663 22.8143C10.5915 22.9286 11.2243 22.9918 11.8705 22.9993C11.9136 22.9998 11.9567 23 11.9999 23C15.6894 23 18.9547 21.1836 20.9502 18.3962C21.3681 17.8125 21.7303 17.1861 22.0291 16.525C22.6528 15.1448 22.9999 13.613 22.9999 12C22.9999 8.73978 21.5816 5.81084 19.3283 3.79653C18.8064 3.32998 18.2397 2.91249 17.6355 2.55132C15.9873 1.56615 14.0597 1 11.9999 1C11.888 1 11.7765 1.00167 11.6654 1.00499C9.99849 1.05479 8.4248 1.47541 7.02393 2.18719C6.07088 2.67144 5.19782 3.29045 4.42985 4.01914C3.71663 4.69587 3.09404 5.4672 2.58219 6.31302C2.22111 6.90969 1.91514 7.54343 1.67133 8.20718C1.24187 9.37631 1.00526 10.6386 1.00003 11.9554ZM20.4812 15.0186C20.8171 14.075 20.9999 13.0588 20.9999 12C20.9999 9.54265 20.0151 7.31533 18.4186 5.6912C17.5975 7.05399 16.5148 8.18424 15.2668 9.0469C15.7352 10.2626 15.9886 11.5603 16.0045 12.8778C16.7693 13.0484 17.5275 13.304 18.2669 13.6488C19.0741 14.0252 19.8141 14.487 20.4812 15.0186ZM15.8414 14.8954C16.3752 15.0321 16.9041 15.22 17.4217 15.4614C18.222 15.8346 18.9417 16.3105 19.5723 16.8661C18.0689 19.2008 15.5151 20.7953 12.5789 20.9817C13.5517 20.0585 14.3709 18.9405 14.972 17.6514C15.3909 16.7531 15.678 15.8272 15.8414 14.8954ZM13.9965 12.6219C13.9583 11.7382 13.7898 10.8684 13.5014 10.0408C10.6888 11.2998 7.36587 11.3765 4.35386 9.97197C4.01254 9.81281 3.68322 9.63837 3.36635 9.44983C3.1279 10.2584 2.99994 11.1142 2.99994 12C2.99994 13.9462 3.61766 15.748 4.66773 17.2203C6.83041 14.1875 10.3686 12.4987 13.9965 12.6219ZM6.04704 18.7502C7.77261 16.059 10.7714 14.5382 13.8585 14.6191C13.723 15.3586 13.492 16.093 13.1594 16.8062C12.3777 18.4825 11.1454 19.805 9.67388 20.6965C8.31046 20.3328 7.07444 19.6569 6.04704 18.7502ZM11.9999 3C13.7846 3 15.448 3.51946 16.847 4.41543C16.2113 5.54838 15.3593 6.4961 14.368 7.23057C13.3472 5.57072 11.8752 4.16433 10.027 3.21692C10.6619 3.07492 11.3222 3 11.9999 3ZM8.80622 4.84582C10.4462 5.61056 11.7475 6.80659 12.6379 8.23588C10.3464 9.24654 7.64725 9.30095 5.19909 8.15936C4.83387 7.98905 4.48544 7.79735 4.15461 7.58645C4.91368 6.24006 6.00932 5.10867 7.32737 4.30645C7.82675 4.44058 8.32141 4.61975 8.80622 4.84582Z" fill="black"/>
</svg>
