<svg width="24" height="24" viewBox="0 0 24 24" fill="none" xmlns="http://www.w3.org/2000/svg">
<path fill-rule="evenodd" clip-rule="evenodd" d="M3.5 12.8995C2.71895 13.6805 2.71895 14.9469 3.5 15.7279L7.35788 19.5858H4.08579C3.5335 19.5858 3.08579 20.0335 3.08579 20.5858C3.08579 21.1381 3.5335 21.5858 4.08579 21.5858H20.0858C20.6381 21.5858 21.0858 21.1381 21.0858 20.5858C21.0858 20.0335 20.6381 19.5858 20.0858 19.5858H10.9558L20.4706 10.0711C21.2516 9.29002 21.2516 8.02369 20.4706 7.24264L16.2279 3C15.4469 2.21895 14.1805 2.21895 13.3995 3L3.5 12.8995ZM7.82582 11.4021L4.91422 14.3137L9.15686 18.5564L12.0685 15.6447L7.82582 11.4021ZM9.24003 9.9879L13.4827 14.2305L19.0564 8.65686L14.8137 4.41422L9.24003 9.9879Z" fill="black"/>
</svg>
