<svg width="24" height="24" viewBox="0 0 24 24" fill="none" xmlns="http://www.w3.org/2000/svg">
<path d="M7.71692 5.72315C6.71584 6.18996 6.28273 7.37992 6.74954 8.381C7.21635 9.38208 8.40631 9.81519 9.40739 9.34838L20.2831 4.27696C21.2842 3.81015 21.7173 2.62019 21.2505 1.61911C20.7837 0.618028 19.5937 0.184918 18.5926 0.651729L7.71692 5.72315Z" fill="black"/>
<path d="M4.74954 15.381C4.28273 14.3799 4.71584 13.19 5.71692 12.7231L16.5926 7.65173C17.5937 7.18492 18.7837 7.61803 19.2505 8.61911C19.7173 9.62019 19.2842 10.8101 18.2831 11.277L7.40739 16.3484C6.40631 16.8152 5.21635 16.3821 4.74954 15.381Z" fill="black"/>
<path d="M2.74954 22.381C2.28273 21.3799 2.71584 20.19 3.71692 19.7231L14.5926 14.6517C15.5937 14.1849 16.7837 14.618 17.2505 15.6191C17.7173 16.6202 17.2842 17.8101 16.2831 18.277L5.40739 23.3484C4.40631 23.8152 3.21635 23.3821 2.74954 22.381Z" fill="black"/>
</svg>
