<svg width="24" height="24" viewBox="0 0 24 24" fill="none" xmlns="http://www.w3.org/2000/svg">
<path d="M20.2739 9.86895L16.8325 4.95404L18.4708 3.80688L21.9122 8.7218L20.2739 9.86895Z" fill="black"/>
<path d="M18.3901 12.4087L16.6694 9.95133L8.47784 15.6871L10.1985 18.1445L8.56023 19.2917L3.97162 12.7385L5.60993 11.5913L7.33068 14.0488L15.5222 8.31303L13.8015 5.85553L15.4398 4.70837L20.0284 11.2616L18.3901 12.4087Z" fill="black"/>
<path d="M20.7651 7.08343L22.4034 5.93628L21.2562 4.29797L19.6179 5.44513L20.7651 7.08343Z" fill="black"/>
<path d="M7.16754 19.0461L3.72608 14.1312L2.08777 15.2783L5.52923 20.1932L7.16754 19.0461Z" fill="black"/>
<path d="M4.38208 18.555L2.74378 19.7021L1.59662 18.0638L3.23493 16.9167L4.38208 18.555Z" fill="black"/>
</svg>
