<svg width="24" height="24" viewBox="0 0 24 24" fill="none" xmlns="http://www.w3.org/2000/svg">
<path fill-rule="evenodd" clip-rule="evenodd" d="M12.0123 5.57169L10.9253 4.48469C8.77739 2.33681 5.29498 2.33681 3.1471 4.48469C0.999215 6.63258 0.999215 10.115 3.1471 12.2629L11.9859 21.1017L11.9877 21.0999L12.0141 21.1262L20.8529 12.2874C23.0008 10.1395 23.0008 6.65711 20.8529 4.50923C18.705 2.36134 15.2226 2.36134 13.0747 4.50923L12.0123 5.57169ZM11.9877 18.2715L16.924 13.3352L18.3748 11.9342L18.3762 11.9356L19.4387 10.8732C20.8055 9.50635 20.8055 7.29028 19.4387 5.92344C18.0719 4.55661 15.8558 4.55661 14.4889 5.92344L12.0133 8.39904L12.0061 8.3918L12.005 8.39287L9.51106 5.89891C8.14422 4.53207 5.92815 4.53207 4.56131 5.89891C3.19448 7.26574 3.19448 9.48182 4.56131 10.8487L7.10074 13.3881L7.10254 13.3863L11.9877 18.2715Z" fill="black"/>
</svg>
