<svg width="24" height="24" viewBox="0 0 24 24" fill="none" xmlns="http://www.w3.org/2000/svg">
<path d="M16.2426 6.34316C16.6332 5.95263 17.2663 5.95263 17.6568 6.34316C18.0474 6.73368 18.0474 7.36684 17.6568 7.75737L7.75735 17.6569C7.36683 18.0474 6.73366 18.0474 6.34314 17.6569C5.95262 17.2663 5.95262 16.6332 6.34314 16.2427L16.2426 6.34316Z" fill="black"/>
<path d="M9.87867 9.87869C9.09763 10.6597 7.8313 10.6597 7.05025 9.87869C6.2692 9.09764 6.2692 7.83131 7.05025 7.05026C7.8313 6.26921 9.09763 6.26921 9.87867 7.05026C10.6597 7.83131 10.6597 9.09764 9.87867 9.87869Z" fill="black"/>
<path d="M14.1213 16.9498C14.9024 17.7308 16.1687 17.7308 16.9497 16.9498C17.7308 16.1687 17.7308 14.9024 16.9497 14.1213C16.1687 13.3403 14.9024 13.3403 14.1213 14.1213C13.3403 14.9024 13.3403 16.1687 14.1213 16.9498Z" fill="black"/>
</svg>
