<svg width="24" height="24" viewBox="0 0 24 24" fill="none" xmlns="http://www.w3.org/2000/svg">
<path fill-rule="evenodd" clip-rule="evenodd" d="M16.2721 10.2721C16.2721 12.4813 14.4813 14.2721 12.2721 14.2721C10.063 14.2721 8.27211 12.4813 8.27211 10.2721C8.27211 8.06298 10.063 6.27212 12.2721 6.27212C14.4813 6.27212 16.2721 8.06298 16.2721 10.2721ZM14.2721 10.2721C14.2721 11.3767 13.3767 12.2721 12.2721 12.2721C11.1675 12.2721 10.2721 11.3767 10.2721 10.2721C10.2721 9.16755 11.1675 8.27212 12.2721 8.27212C13.3767 8.27212 14.2721 9.16755 14.2721 10.2721Z" fill="black"/>
<path fill-rule="evenodd" clip-rule="evenodd" d="M5.79414 16.5183C2.19421 13.0909 2.05435 7.39409 5.48175 3.79417C8.90914 0.194243 14.6059 0.054383 18.2058 3.48178C21.8058 6.90918 21.9456 12.6059 18.5182 16.2059L12.3124 22.7241L5.79414 16.5183ZM17.0697 14.8268L12.243 19.8965L7.17321 15.0698C4.37327 12.404 4.26449 7.97318 6.93025 5.17324C9.596 2.3733 14.0268 2.26452 16.8268 4.93028C19.6267 7.59603 19.7355 12.0268 17.0697 14.8268Z" fill="black"/>
</svg>
