<svg width="24" height="24" viewBox="0 0 24 24" fill="none" xmlns="http://www.w3.org/2000/svg">
<path fill-rule="evenodd" clip-rule="evenodd" d="M12 21C7.02941 21 2.99997 16.9706 2.99997 12C2.99997 7.02944 7.02941 3 12 3C16.9705 3 21 7.02944 21 12C21 16.9706 16.9705 21 12 21ZM0.999969 12C0.999969 5.92487 5.92484 1 12 1C18.0751 1 23 5.92487 23 12C23 18.0751 18.0751 23 12 23C5.92484 23 0.999969 18.0751 0.999969 12ZM14 9C14 8.44772 14.4477 8 15 8C15.5523 8 16 8.44772 16 9V15C16 15.5523 15.5523 16 15 16C14.4477 16 14 15.5523 14 15V9ZM13 12L6.99997 15.4641V8.5359L13 12Z" fill="black"/>
</svg>
