<svg width="24" height="24" viewBox="0 0 24 24" fill="none" xmlns="http://www.w3.org/2000/svg">
<path d="M9.17157 16.8182L7.75735 18.2324L12 22.475L16.2426 18.2324L14.8284 16.8182L12 19.6466L9.17157 16.8182Z" fill="black"/>
<path d="M14.8284 7.182L16.2426 5.76779L12 1.52515L7.75736 5.76779L9.17158 7.182L12 4.35357L14.8284 7.182Z" fill="black"/>
<path fill-rule="evenodd" clip-rule="evenodd" d="M12 9.00018C13.6569 9.00018 15 10.3433 15 12.0002C15 13.657 13.6569 15.0002 12 15.0002C10.3432 15.0002 9.00003 13.657 9.00003 12.0002C9.00003 10.3433 10.3432 9.00018 12 9.00018ZM12 11.0002C12.5523 11.0002 13 11.4479 13 12.0002C13 12.5525 12.5523 13.0002 12 13.0002C11.4477 13.0002 11 12.5525 11 12.0002C11 11.4479 11.4477 11.0002 12 11.0002Z" fill="black"/>
</svg>
