<svg width="24" height="24" viewBox="0 0 24 24" fill="none" xmlns="http://www.w3.org/2000/svg">
<path d="M8.55027 10.5503C8.55027 11.1026 8.10256 11.5503 7.55027 11.5503C6.99799 11.5503 6.55027 11.1026 6.55027 10.5503C6.55027 9.99801 6.99799 9.55029 7.55027 9.55029C8.10256 9.55029 8.55027 9.99801 8.55027 10.5503Z" fill="black"/>
<path d="M10.5503 11.5503C11.1026 11.5503 11.5503 11.1026 11.5503 10.5503C11.5503 9.99801 11.1026 9.55029 10.5503 9.55029C9.99799 9.55029 9.55027 9.99801 9.55027 10.5503C9.55027 11.1026 9.99799 11.5503 10.5503 11.5503Z" fill="black"/>
<path d="M13.5503 11.5503C14.1026 11.5503 14.5503 11.1026 14.5503 10.5503C14.5503 9.99801 14.1026 9.55029 13.5503 9.55029C12.998 9.55029 12.5503 9.99801 12.5503 10.5503C12.5503 11.1026 12.998 11.5503 13.5503 11.5503Z" fill="black"/>
<path fill-rule="evenodd" clip-rule="evenodd" d="M16.2071 4.89344C19.0923 7.7786 19.313 12.3192 16.8693 15.4577C16.8846 15.4712 16.8996 15.4853 16.9142 15.4999L21.1568 19.7426C21.5474 20.1331 21.5474 20.7663 21.1568 21.1568C20.7663 21.5473 20.1332 21.5473 19.7426 21.1568L15.5 16.9141C15.4854 16.8995 15.4713 16.8846 15.4578 16.8693C12.3193 19.3131 7.77861 19.0923 4.89341 16.2071C1.76921 13.083 1.76921 8.01763 4.89341 4.89344C8.0176 1.76924 13.0829 1.76924 16.2071 4.89344ZM6.30762 14.7929C8.65077 17.1361 12.4498 17.1361 14.7929 14.7929C17.136 12.4498 17.136 8.6508 14.7929 6.30765C12.4498 3.96451 8.65077 3.96451 6.30762 6.30765C3.96448 8.6508 3.96448 12.4498 6.30762 14.7929Z" fill="black"/>
</svg>
