<svg width="24" height="24" viewBox="0 0 24 24" fill="none" xmlns="http://www.w3.org/2000/svg">
<path d="M7.66537 10.2366L9.19746 8.951L10.483 10.4831L13.5472 7.91194L14.8328 9.44402L10.2365 13.3007L7.66537 10.2366Z" fill="black"/>
<path fill-rule="evenodd" clip-rule="evenodd" d="M16.2071 4.89344C19.0923 7.77862 19.313 12.3193 16.8693 15.4578C16.8846 15.4713 16.8996 15.4854 16.9142 15.5L21.1568 19.7427C21.5474 20.1332 21.5474 20.7664 21.1568 21.1569C20.7663 21.5474 20.1332 21.5474 19.7426 21.1569L15.5 16.9143C15.4854 16.8996 15.4713 16.8846 15.4577 16.8693C12.3192 19.3131 7.77857 19.0923 4.89339 16.2071C1.7692 13.083 1.7692 8.01763 4.89339 4.89344C8.01759 1.76924 13.0829 1.76924 16.2071 4.89344ZM14.7929 14.7929C17.136 12.4498 17.136 8.6508 14.7929 6.30765C12.4497 3.96451 8.65075 3.96451 6.30761 6.30765C3.96446 8.6508 3.96446 12.4498 6.30761 14.7929C8.65075 17.1361 12.4497 17.1361 14.7929 14.7929Z" fill="black"/>
</svg>
