<svg width="24" height="24" viewBox="0 0 24 24" fill="none" xmlns="http://www.w3.org/2000/svg">
<path fill-rule="evenodd" clip-rule="evenodd" d="M7.03432 6.5C7.03432 3.73858 9.2729 1.5 12.0343 1.5C14.7957 1.5 17.0343 3.73858 17.0343 6.5V10.5C17.0343 13.2614 14.7957 15.5 12.0343 15.5C9.2729 15.5 7.03432 13.2614 7.03432 10.5V6.5ZM15.0343 6.5V10.5C15.0343 12.1569 13.6912 13.5 12.0343 13.5C10.3775 13.5 9.03432 12.1569 9.03432 10.5V6.5C9.03432 4.84315 10.3775 3.5 12.0343 3.5C13.6912 3.5 15.0343 4.84315 15.0343 6.5Z" fill="black"/>
<path d="M12.0343 16.5C11.482 16.5 11.0343 16.9477 11.0343 17.5V21.5C11.0343 22.0523 11.482 22.5 12.0343 22.5C12.5866 22.5 13.0343 22.0523 13.0343 21.5V17.5C13.0343 16.9477 12.5866 16.5 12.0343 16.5Z" fill="black"/>
<path d="M7.7443 16.4397C7.9332 15.9207 8.50704 15.6531 9.02602 15.842C9.54499 16.0309 9.81258 16.6048 9.62369 17.1237L8.25561 20.8825C8.06672 21.4015 7.49287 21.6691 6.9739 21.4802C6.45492 21.2913 6.18733 20.7174 6.37622 20.1985L7.7443 16.4397Z" fill="black"/>
<path d="M14.974 15.8421C14.455 16.031 14.1874 16.6048 14.3763 17.1238L15.7444 20.8825C15.9333 21.4015 16.5072 21.6691 17.0261 21.4802C17.5451 21.2913 17.8127 20.7175 17.6238 20.1985L16.2557 16.4397C16.0668 15.9208 15.493 15.6532 14.974 15.8421Z" fill="black"/>
</svg>
