<svg width="24" height="24" viewBox="0 0 24 24" fill="none" xmlns="http://www.w3.org/2000/svg">
<path d="M7.17227 18.025C5.81667 17.2863 4.69527 16.1662 3.95531 14.7911C3.01669 13.0469 2.75852 11.0164 3.23076 9.09282C3.703 7.1692 4.87206 5.48916 6.51169 4.37787C8.15132 3.26658 10.1449 2.80307 12.1066 3.07704L11.6701 6.20271C10.4823 6.03682 9.27515 6.31747 8.28236 6.99036C7.28956 7.66324 6.58169 8.68051 6.29575 9.84526C6.00981 11.01 6.16613 12.2394 6.73446 13.2956C7.18252 14.1282 7.86153 14.8064 8.68235 15.2537L14.8279 3.97549L17.4622 5.41092C18.8178 6.14958 19.9391 7.26973 20.6791 8.64481C21.6177 10.389 21.8759 12.4195 21.4036 14.3431C20.9314 16.2667 19.7623 17.9468 18.1227 19.058C16.4831 20.1693 14.4895 20.6328 12.5278 20.3589L12.9643 17.2332C14.1521 17.3991 15.3592 17.1184 16.352 16.4456C17.3448 15.7727 18.0527 14.7554 18.3386 13.5906C18.6246 12.4259 18.4683 11.1965 17.8999 10.1403C17.4519 9.30773 16.7729 8.6295 15.9521 8.18224L9.80652 19.4605L7.17227 18.025Z" fill="black"/>
</svg>
