<svg width="24" height="24" viewBox="0 0 24 24" fill="none" xmlns="http://www.w3.org/2000/svg">
<path d="M18.6213 2.55023L21.4498 5.37866L20.0355 6.79287L17.2071 3.96445L18.6213 2.55023Z" fill="black"/>
<path d="M12.8225 8.60048H10.8225V12.6005H12.8225V8.60048Z" fill="black"/>
<path fill-rule="evenodd" clip-rule="evenodd" d="M5.1863 18.8137C8.70102 22.3284 14.3995 22.3284 17.9142 18.8137C21.4289 15.299 21.4289 9.60048 17.9142 6.08577C14.3995 2.57105 8.70102 2.57105 5.1863 6.08577C1.67158 9.60048 1.67158 15.299 5.1863 18.8137ZM6.60051 17.3995C9.33418 20.1331 13.7663 20.1331 16.5 17.3995C19.2337 14.6658 19.2337 10.2336 16.5 7.49998C13.7663 4.76631 9.33418 4.76631 6.60051 7.49998C3.86684 10.2336 3.86684 14.6658 6.60051 17.3995Z" fill="black"/>
</svg>
