<svg width="24" height="24" viewBox="0 0 24 24" fill="none" xmlns="http://www.w3.org/2000/svg">
<path d="M3.66124 2.67105C3.71341 2.39988 3.97956 2.18005 4.2557 2.18005H6.2557C6.53184 2.18005 6.71341 2.39988 6.66124 2.67105L5.33877 9.54499C5.2866 9.81616 5.02045 10.036 4.74431 10.036H2.74431C2.46817 10.036 2.2866 9.81616 2.33877 9.54499L3.66124 2.67105Z" fill="black"/>
<path d="M8.66124 2.67105C8.71341 2.39988 8.97956 2.18005 9.2557 2.18005H11.2557C11.5318 2.18005 11.7134 2.39988 11.6612 2.67105L8.07168 21.3289C8.01951 21.6001 7.75336 21.8199 7.47722 21.8199H5.47722C5.20108 21.8199 5.01951 21.6001 5.07168 21.3289L8.66124 2.67105Z" fill="black"/>
<path d="M13.6612 2.67105C13.7134 2.39988 13.9796 2.18005 14.2557 2.18005H16.2557C16.5318 2.18005 16.7134 2.39988 16.6612 2.67105L13.0717 21.3289C13.0195 21.6001 12.7534 21.8199 12.4772 21.8199H10.4772C10.2011 21.8199 10.0195 21.6001 10.0717 21.3289L13.6612 2.67105Z" fill="black"/>
<path d="M18.6612 2.67105C18.7134 2.39988 18.9796 2.18005 19.2557 2.18005H21.2557C21.5318 2.18005 21.7134 2.39988 21.6612 2.67105L20.3388 9.54499C20.2866 9.81616 20.0205 10.036 19.7443 10.036H17.7443C17.4682 10.036 17.2866 9.81616 17.3388 9.54499L18.6612 2.67105Z" fill="black"/>
</svg>
