<svg width="24" height="24" viewBox="0 0 24 24" fill="none" xmlns="http://www.w3.org/2000/svg">
<path d="M16.9497 5.63615C17.3403 5.24563 17.9734 5.24563 18.364 5.63615C18.7545 6.02668 18.7545 6.65984 18.364 7.05037L11.2929 14.1214C10.9024 14.512 10.2692 14.512 9.87868 14.1214C9.48815 13.7309 9.48815 13.0977 9.87868 12.7072L16.9497 5.63615Z" fill="black"/>
<path fill-rule="evenodd" clip-rule="evenodd" d="M7.82808 17.5862C9.76945 18.8725 12.4109 18.6603 14.1213 16.9499L21.1924 9.8788C23.145 7.92617 23.145 4.76035 21.1924 2.80773C19.2398 0.855106 16.0739 0.855106 14.1213 2.80773L7.05025 9.8788C5.33979 11.5893 5.12766 14.2307 6.41387 16.172L2.80761 19.7783C2.41709 20.1688 2.41709 20.802 2.80761 21.1925C3.19813 21.583 3.8313 21.583 4.22182 21.1925L7.82808 17.5862ZM12.7071 15.5356L19.7782 8.46458C20.9497 7.29301 20.9497 5.39351 19.7782 4.22194C18.6066 3.05037 16.7071 3.05037 15.5355 4.22194L8.46446 11.293C7.29289 12.4646 7.29289 14.3641 8.46446 15.5356C9.63604 16.7072 11.5355 16.7072 12.7071 15.5356Z" fill="black"/>
</svg>
