<svg width="24" height="24" viewBox="0 0 24 24" fill="none" xmlns="http://www.w3.org/2000/svg">
<path d="M5.33928 4.46777H7.33928V7.02487C8.52929 6.08978 10.0299 5.53207 11.6607 5.53207C15.5267 5.53207 18.6607 8.66608 18.6607 12.5321C18.6607 16.3981 15.5267 19.5321 11.6607 19.5321C9.51023 19.5321 7.58624 18.5623 6.30217 17.0363L7.92149 15.8515C8.83739 16.8825 10.1732 17.5321 11.6607 17.5321C14.4221 17.5321 16.6607 15.2935 16.6607 12.5321C16.6607 9.77065 14.4221 7.53207 11.6607 7.53207C10.5739 7.53207 9.56803 7.87884 8.74778 8.46777L11.3393 8.46777V10.4678H5.33928V4.46777Z" fill="black"/>
</svg>
