<svg width="24" height="24" viewBox="0 0 24 24" fill="none" xmlns="http://www.w3.org/2000/svg">
<path fill-rule="evenodd" clip-rule="evenodd" d="M15.3432 15.2426C17.6863 12.8995 17.6863 9.1005 15.3432 6.75736C13 4.41421 9.20103 4.41421 6.85788 6.75736C4.51473 9.1005 4.51473 12.8995 6.85788 15.2426C9.20103 17.5858 13 17.5858 15.3432 15.2426ZM16.7574 5.34315C19.6426 8.22833 19.8633 12.769 17.4196 15.9075C17.4349 15.921 17.4498 15.9351 17.4645 15.9497L21.7071 20.1924C22.0976 20.5829 22.0976 21.2161 21.7071 21.6066C21.3166 21.9971 20.6834 21.9971 20.2929 21.6066L16.0503 17.364C16.0356 17.3493 16.0215 17.3343 16.008 17.319C12.8695 19.7628 8.32885 19.542 5.44367 16.6569C2.31947 13.5327 2.31947 8.46734 5.44367 5.34315C8.56786 2.21895 13.6332 2.21895 16.7574 5.34315ZM10.1005 7H12.1005V10H15.1005V12H12.1005V15H10.1005V12H7.10053V10H10.1005V7Z" fill="black"/>
</svg>
