<svg width="104" height="40" viewBox="0 0 104 40" fill="none" xmlns="http://www.w3.org/2000/svg">
<g clip-path="url(#clip0)">
<path d="M4 17.6667C4 11.7756 8.77563 7 14.6667 7H36C36 12.891 31.2244 17.6667 25.3333 17.6667H4Z" fill="#E1A0FF"/>
<path d="M36 33.6667C36 27.7756 31.2244 23 25.3334 23H12.8889C12.8889 28.891 17.6645 33.6667 23.5556 33.6667H36Z" fill="#A953FF"/>
<path d="M9.33333 23C12.2789 23 14.6667 20.6122 14.6667 17.6666C14.6667 14.7211 12.2789 12.3333 9.33333 12.3333C6.38781 12.3333 4 14.7211 4 17.6666C4 20.6122 6.38781 23 9.33333 23Z" fill="#E1A0FF"/>
<path d="M14.6667 17.6666C14.6667 16.9663 14.5287 16.2727 14.2607 15.6257C13.9927 14.9786 13.5998 14.3907 13.1046 13.8954C12.6093 13.4002 12.0214 13.0073 11.3743 12.7393C10.7272 12.4713 10.0337 12.3333 9.33333 12.3333C8.63294 12.3333 7.93943 12.4713 7.29236 12.7393C6.64528 13.0073 6.05735 13.4002 5.5621 13.8954C5.06685 14.3907 4.674 14.9786 4.40598 15.6257C4.13795 16.2727 4 16.9663 4 17.6666H9.33333H14.6667Z" fill="#A953FF"/>
</g>
<path d="M51.8717 19.718C51.8717 18.494 52.1477 17.396 52.6997 16.424C53.2517 15.44 54.0017 14.672 54.9497 14.12C55.9097 13.568 56.9717 13.292 58.1357 13.292C59.5037 13.292 60.6977 13.622 61.7177 14.282C62.7377 14.942 63.4817 15.878 63.9497 17.09H61.9877C61.6397 16.334 61.1357 15.752 60.4757 15.344C59.8277 14.936 59.0477 14.732 58.1357 14.732C57.2597 14.732 56.4737 14.936 55.7777 15.344C55.0817 15.752 54.5357 16.334 54.1397 17.09C53.7437 17.834 53.5457 18.71 53.5457 19.718C53.5457 20.714 53.7437 21.59 54.1397 22.346C54.5357 23.09 55.0817 23.666 55.7777 24.074C56.4737 24.482 57.2597 24.686 58.1357 24.686C59.0477 24.686 59.8277 24.488 60.4757 24.092C61.1357 23.684 61.6397 23.102 61.9877 22.346H63.9497C63.4817 23.546 62.7377 24.476 61.7177 25.136C60.6977 25.784 59.5037 26.108 58.1357 26.108C56.9717 26.108 55.9097 25.838 54.9497 25.298C54.0017 24.746 53.2517 23.984 52.6997 23.012C52.1477 22.04 51.8717 20.942 51.8717 19.718ZM65.776 21.032C65.776 20.024 65.98 19.142 66.388 18.386C66.796 17.618 67.354 17.024 68.062 16.604C68.782 16.184 69.58 15.974 70.456 15.974C71.32 15.974 72.07 16.16 72.706 16.532C73.342 16.904 73.816 17.372 74.128 17.936V16.136H75.784V26H74.128V24.164C73.804 24.74 73.318 25.22 72.67 25.604C72.034 25.976 71.29 26.162 70.438 26.162C69.562 26.162 68.77 25.946 68.062 25.514C67.354 25.082 66.796 24.476 66.388 23.696C65.98 22.916 65.776 22.028 65.776 21.032ZM74.128 21.05C74.128 20.306 73.978 19.658 73.678 19.106C73.378 18.554 72.97 18.134 72.454 17.846C71.95 17.546 71.392 17.396 70.78 17.396C70.168 17.396 69.61 17.54 69.106 17.828C68.602 18.116 68.2 18.536 67.9 19.088C67.6 19.64 67.45 20.288 67.45 21.032C67.45 21.788 67.6 22.448 67.9 23.012C68.2 23.564 68.602 23.99 69.106 24.29C69.61 24.578 70.168 24.722 70.78 24.722C71.392 24.722 71.95 24.578 72.454 24.29C72.97 23.99 73.378 23.564 73.678 23.012C73.978 22.448 74.128 21.794 74.128 21.05ZM80.19 17.738C80.478 17.174 80.886 16.736 81.414 16.424C81.954 16.112 82.608 15.956 83.376 15.956V17.648H82.944C81.108 17.648 80.19 18.644 80.19 20.636V26H78.552V16.136H80.19V17.738ZM86.9049 12.68V26H85.2669V12.68H86.9049ZM90.5425 14.534C90.2305 14.534 89.9665 14.426 89.7505 14.21C89.5345 13.994 89.4265 13.73 89.4265 13.418C89.4265 13.106 89.5345 12.842 89.7505 12.626C89.9665 12.41 90.2305 12.302 90.5425 12.302C90.8425 12.302 91.0945 12.41 91.2985 12.626C91.5145 12.842 91.6225 13.106 91.6225 13.418C91.6225 13.73 91.5145 13.994 91.2985 14.21C91.0945 14.426 90.8425 14.534 90.5425 14.534ZM91.3345 16.136V26H89.6965V16.136H91.3345ZM103.126 20.69C103.126 21.002 103.108 21.332 103.072 21.68H95.1882C95.2482 22.652 95.5782 23.414 96.1782 23.966C96.7902 24.506 97.5282 24.776 98.3922 24.776C99.1002 24.776 99.6882 24.614 100.156 24.29C100.636 23.954 100.972 23.51 101.164 22.958H102.928C102.664 23.906 102.136 24.68 101.344 25.28C100.552 25.868 99.5682 26.162 98.3922 26.162C97.4562 26.162 96.6162 25.952 95.8722 25.532C95.1402 25.112 94.5642 24.518 94.1442 23.75C93.7242 22.97 93.5142 22.07 93.5142 21.05C93.5142 20.03 93.7182 19.136 94.1262 18.368C94.5342 17.6 95.1042 17.012 95.8362 16.604C96.5802 16.184 97.4322 15.974 98.3922 15.974C99.3282 15.974 100.156 16.178 100.876 16.586C101.596 16.994 102.148 17.558 102.532 18.278C102.928 18.986 103.126 19.79 103.126 20.69ZM101.434 20.348C101.434 19.724 101.296 19.19 101.02 18.746C100.744 18.29 100.366 17.948 99.8862 17.72C99.4182 17.48 98.8962 17.36 98.3202 17.36C97.4922 17.36 96.7842 17.624 96.1962 18.152C95.6202 18.68 95.2902 19.412 95.2062 20.348H101.434Z" fill="#3D2742"/>
<defs>
<clipPath id="clip0">
<rect width="32" height="26.6667" fill="white" transform="translate(4 7)"/>
</clipPath>
</defs>
</svg>
